<svg width="381" height="121" viewBox="0 0 381 121" fill="none" xmlns="http://www.w3.org/2000/svg">
<path d="M150.88 53.336C148.544 53.336 146.432 52.936 144.544 52.136C142.688 51.336 141.216 50.184 140.128 48.68C139.04 47.176 138.48 45.4 138.448 43.352H145.648C145.744 44.728 146.224 45.816 147.088 46.616C147.984 47.416 149.2 47.816 150.736 47.816C152.304 47.816 153.536 47.448 154.432 46.712C155.328 45.944 155.776 44.952 155.776 43.736C155.776 42.744 155.472 41.928 154.864 41.288C154.256 40.648 153.488 40.152 152.56 39.8C151.664 39.416 150.416 39 148.816 38.552C146.64 37.912 144.864 37.288 143.488 36.68C142.144 36.04 140.976 35.096 139.984 33.848C139.024 32.568 138.544 30.872 138.544 28.76C138.544 26.776 139.04 25.048 140.032 23.576C141.024 22.104 142.416 20.984 144.208 20.216C146 19.416 148.048 19.016 150.352 19.016C153.808 19.016 156.608 19.864 158.752 21.56C160.928 23.224 162.128 25.56 162.352 28.568H154.96C154.896 27.416 154.4 26.472 153.472 25.736C152.576 24.968 151.376 24.584 149.872 24.584C148.56 24.584 147.504 24.92 146.704 25.592C145.936 26.264 145.552 27.24 145.552 28.52C145.552 29.416 145.84 30.168 146.416 30.776C147.024 31.352 147.76 31.832 148.624 32.216C149.52 32.568 150.768 32.984 152.368 33.464C154.544 34.104 156.32 34.744 157.696 35.384C159.072 36.024 160.256 36.984 161.248 38.264C162.24 39.544 162.736 41.224 162.736 43.304C162.736 45.096 162.272 46.76 161.344 48.296C160.416 49.832 159.056 51.064 157.264 51.992C155.472 52.888 153.344 53.336 150.88 53.336ZM184.114 53.336C180.978 53.336 178.098 52.6 175.474 51.128C172.85 49.656 170.77 47.624 169.234 45.032C167.698 42.408 166.93 39.448 166.93 36.152C166.93 32.888 167.698 29.96 169.234 27.368C170.77 24.744 172.85 22.696 175.474 21.224C178.098 19.752 180.978 19.016 184.114 19.016C187.282 19.016 190.162 19.752 192.754 21.224C195.378 22.696 197.442 24.744 198.946 27.368C200.482 29.96 201.25 32.888 201.25 36.152C201.25 39.448 200.482 42.408 198.946 45.032C197.442 47.624 195.378 49.656 192.754 51.128C190.13 52.6 187.25 53.336 184.114 53.336ZM184.114 47.336C186.13 47.336 187.906 46.888 189.442 45.992C190.978 45.064 192.178 43.752 193.042 42.056C193.906 40.36 194.338 38.392 194.338 36.152C194.338 33.912 193.906 31.96 193.042 30.296C192.178 28.6 190.978 27.304 189.442 26.408C187.906 25.512 186.13 25.064 184.114 25.064C182.098 25.064 180.306 25.512 178.738 26.408C177.202 27.304 176.002 28.6 175.138 30.296C174.274 31.96 173.842 33.912 173.842 36.152C173.842 38.392 174.274 40.36 175.138 42.056C176.002 43.752 177.202 45.064 178.738 45.992C180.306 46.888 182.098 47.336 184.114 47.336ZM204.618 36.2C204.618 32.904 205.354 29.96 206.826 27.368C208.33 24.744 210.362 22.712 212.922 21.272C215.514 19.8 218.41 19.064 221.61 19.064C225.354 19.064 228.634 20.024 231.45 21.944C234.266 23.864 236.234 26.52 237.354 29.912H229.626C228.858 28.312 227.77 27.112 226.362 26.312C224.986 25.512 223.386 25.112 221.562 25.112C219.61 25.112 217.866 25.576 216.33 26.504C214.826 27.4 213.642 28.68 212.778 30.344C211.946 32.008 211.53 33.96 211.53 36.2C211.53 38.408 211.946 40.36 212.778 42.056C213.642 43.72 214.826 45.016 216.33 45.944C217.866 46.84 219.61 47.288 221.562 47.288C223.386 47.288 224.986 46.888 226.362 46.088C227.77 45.256 228.858 44.04 229.626 42.44H237.354C236.234 45.864 234.266 48.536 231.45 50.456C228.666 52.344 225.386 53.288 221.61 53.288C218.41 53.288 215.514 52.568 212.922 51.128C210.362 49.656 208.33 47.624 206.826 45.032C205.354 42.44 204.618 39.496 204.618 36.2ZM249.813 19.496V53H243.093V19.496H249.813ZM263.173 24.92V33.32H274.453V38.648H263.173V47.528H275.893V53H256.453V19.448H275.893V24.92H263.173ZM304.8 19.496V24.92H295.872V53H289.152V24.92H280.224V19.496H304.8ZM336.343 19.496L325.015 41.336V53H318.295V41.336L306.919 19.496H314.503L321.703 34.808L328.855 19.496H336.343ZM374.408 23.816H358.856V32.024C359.528 31.192 360.488 30.52 361.736 30.008C362.984 29.464 364.312 29.192 365.72 29.192C368.28 29.192 370.376 29.752 372.008 30.872C373.64 31.992 374.824 33.432 375.56 35.192C376.296 36.92 376.664 38.776 376.664 40.76C376.664 44.44 375.608 47.4 373.496 49.64C371.416 51.88 368.44 53 364.568 53C360.92 53 358.008 52.088 355.832 50.264C353.656 48.44 352.424 46.056 352.136 43.112H358.664C358.952 44.392 359.592 45.416 360.584 46.184C361.608 46.952 362.904 47.336 364.472 47.336C366.36 47.336 367.784 46.744 368.744 45.56C369.704 44.376 370.184 42.808 370.184 40.856C370.184 38.872 369.688 37.368 368.696 36.344C367.736 35.288 366.312 34.76 364.424 34.76C363.08 34.76 361.96 35.096 361.064 35.768C360.168 36.44 359.528 37.336 359.144 38.456H352.712V17.912H374.408V23.816Z" fill="white"/>
<path d="M146.44 88.168C145.272 88.168 144.216 87.968 143.272 87.568C142.344 87.168 141.608 86.592 141.064 85.84C140.52 85.088 140.24 84.2 140.224 83.176H143.824C143.872 83.864 144.112 84.408 144.544 84.808C144.992 85.208 145.6 85.408 146.368 85.408C147.152 85.408 147.768 85.224 148.216 84.856C148.664 84.472 148.888 83.976 148.888 83.368C148.888 82.872 148.736 82.464 148.432 82.144C148.128 81.824 147.744 81.576 147.28 81.4C146.832 81.208 146.208 81 145.408 80.776C144.32 80.456 143.432 80.144 142.744 79.84C142.072 79.52 141.488 79.048 140.992 78.424C140.512 77.784 140.272 76.936 140.272 75.88C140.272 74.888 140.52 74.024 141.016 73.288C141.512 72.552 142.208 71.992 143.104 71.608C144 71.208 145.024 71.008 146.176 71.008C147.904 71.008 149.304 71.432 150.376 72.28C151.464 73.112 152.064 74.28 152.176 75.784H148.48C148.448 75.208 148.2 74.736 147.736 74.368C147.288 73.984 146.688 73.792 145.936 73.792C145.28 73.792 144.752 73.96 144.352 74.296C143.968 74.632 143.776 75.12 143.776 75.76C143.776 76.208 143.92 76.584 144.208 76.888C144.512 77.176 144.88 77.416 145.312 77.608C145.76 77.784 146.384 77.992 147.184 78.232C148.272 78.552 149.16 78.872 149.848 79.192C150.536 79.512 151.128 79.992 151.624 80.632C152.12 81.272 152.368 82.112 152.368 83.152C152.368 84.048 152.136 84.88 151.672 85.648C151.208 86.416 150.528 87.032 149.632 87.496C148.736 87.944 147.672 88.168 146.44 88.168ZM176.257 88.168C174.689 88.168 173.249 87.8 171.937 87.064C170.625 86.328 169.585 85.312 168.817 84.016C168.049 82.704 167.665 81.224 167.665 79.576C167.665 77.944 168.049 76.48 168.817 75.184C169.585 73.872 170.625 72.848 171.937 72.112C173.249 71.376 174.689 71.008 176.257 71.008C177.841 71.008 179.281 71.376 180.577 72.112C181.889 72.848 182.921 73.872 183.673 75.184C184.441 76.48 184.825 77.944 184.825 79.576C184.825 81.224 184.441 82.704 183.673 84.016C182.921 85.312 181.889 86.328 180.577 87.064C179.265 87.8 177.825 88.168 176.257 88.168ZM176.257 85.168C177.265 85.168 178.153 84.944 178.921 84.496C179.689 84.032 180.289 83.376 180.721 82.528C181.153 81.68 181.369 80.696 181.369 79.576C181.369 78.456 181.153 77.48 180.721 76.648C180.289 75.8 179.689 75.152 178.921 74.704C178.153 74.256 177.265 74.032 176.257 74.032C175.249 74.032 174.353 74.256 173.569 74.704C172.801 75.152 172.201 75.8 171.769 76.648C171.337 77.48 171.121 78.456 171.121 79.576C171.121 80.696 171.337 81.68 171.769 82.528C172.201 83.376 172.801 84.032 173.569 84.496C174.353 84.944 175.249 85.168 176.257 85.168ZM203.885 85.336H209.405V88H200.525V71.248H203.885V85.336ZM228.052 71.248V81.616C228.052 82.752 228.348 83.624 228.94 84.232C229.532 84.824 230.364 85.12 231.436 85.12C232.524 85.12 233.364 84.824 233.956 84.232C234.548 83.624 234.844 82.752 234.844 81.616V71.248H238.228V81.592C238.228 83.016 237.916 84.224 237.292 85.216C236.684 86.192 235.86 86.928 234.82 87.424C233.796 87.92 232.652 88.168 231.388 88.168C230.14 88.168 229.004 87.92 227.98 87.424C226.972 86.928 226.172 86.192 225.58 85.216C224.988 84.224 224.692 83.016 224.692 81.592V71.248H228.052ZM266.075 71.248V73.96H261.611V88H258.251V73.96H253.787V71.248H266.075ZM285.086 71.248V88H281.726V71.248H285.086ZM309.382 88.168C307.814 88.168 306.374 87.8 305.062 87.064C303.75 86.328 302.71 85.312 301.942 84.016C301.174 82.704 300.79 81.224 300.79 79.576C300.79 77.944 301.174 76.48 301.942 75.184C302.71 73.872 303.75 72.848 305.062 72.112C306.374 71.376 307.814 71.008 309.382 71.008C310.966 71.008 312.406 71.376 313.702 72.112C315.014 72.848 316.046 73.872 316.798 75.184C317.566 76.48 317.95 77.944 317.95 79.576C317.95 81.224 317.566 82.704 316.798 84.016C316.046 85.312 315.014 86.328 313.702 87.064C312.39 87.8 310.95 88.168 309.382 88.168ZM309.382 85.168C310.39 85.168 311.278 84.944 312.046 84.496C312.814 84.032 313.414 83.376 313.846 82.528C314.278 81.68 314.494 80.696 314.494 79.576C314.494 78.456 314.278 77.48 313.846 76.648C313.414 75.8 312.814 75.152 312.046 74.704C311.278 74.256 310.39 74.032 309.382 74.032C308.374 74.032 307.478 74.256 306.694 74.704C305.926 75.152 305.326 75.8 304.894 76.648C304.462 77.48 304.246 78.456 304.246 79.576C304.246 80.696 304.462 81.68 304.894 82.528C305.326 83.376 305.926 84.032 306.694 84.496C307.478 84.944 308.374 85.168 309.382 85.168ZM347.978 88H344.618L337.01 76.504V88H333.65V71.224H337.01L344.618 82.744V71.224H347.978V88ZM370.282 88.168C369.114 88.168 368.058 87.968 367.114 87.568C366.186 87.168 365.45 86.592 364.906 85.84C364.362 85.088 364.082 84.2 364.066 83.176H367.666C367.714 83.864 367.954 84.408 368.386 84.808C368.834 85.208 369.442 85.408 370.21 85.408C370.994 85.408 371.61 85.224 372.058 84.856C372.506 84.472 372.73 83.976 372.73 83.368C372.73 82.872 372.578 82.464 372.274 82.144C371.97 81.824 371.586 81.576 371.122 81.4C370.674 81.208 370.05 81 369.25 80.776C368.162 80.456 367.274 80.144 366.586 79.84C365.914 79.52 365.33 79.048 364.834 78.424C364.354 77.784 364.114 76.936 364.114 75.88C364.114 74.888 364.362 74.024 364.858 73.288C365.354 72.552 366.05 71.992 366.946 71.608C367.842 71.208 368.866 71.008 370.018 71.008C371.746 71.008 373.146 71.432 374.218 72.28C375.306 73.112 375.906 74.28 376.018 75.784H372.322C372.29 75.208 372.042 74.736 371.578 74.368C371.13 73.984 370.53 73.792 369.778 73.792C369.122 73.792 368.594 73.96 368.194 74.296C367.81 74.632 367.618 75.12 367.618 75.76C367.618 76.208 367.762 76.584 368.05 76.888C368.354 77.176 368.722 77.416 369.154 77.608C369.602 77.784 370.226 77.992 371.026 78.232C372.114 78.552 373.002 78.872 373.69 79.192C374.378 79.512 374.97 79.992 375.466 80.632C375.962 81.272 376.21 82.112 376.21 83.152C376.21 84.048 375.978 84.88 375.514 85.648C375.05 86.416 374.37 87.032 373.474 87.496C372.578 87.944 371.514 88.168 370.282 88.168Z" fill="#00AEEF"/>
<path d="M62.9646 118.491L124.317 74.7407L101.668 2.86511L26.3053 2.2042L2.38931 73.6715L62.9646 118.491Z" stroke="url(#paint0_linear_44_3647)" stroke-width="3" stroke-miterlimit="10"/>
<path d="M63.8429 4L16 38.7538L34.2673 95H93.4103L111.686 38.7538L63.8429 4Z" fill="url(#paint1_linear_44_3647)"/>
<path d="M39 29L64 10L94.5001 32L88.5 39L64 21.5L47.5 34L39 29Z" fill="white"/>
<path d="M88 72L64 91L33 69L39.0001 62L64 79.5L80 67.5L88 72Z" fill="white"/>
<path d="M38.5088 31C54.9762 40.3005 71.4435 49.6174 87.9109 58.9508L89 70L38 42.136C38.1751 38.4213 38.3447 34.7093 38.5088 31Z" fill="white"/>
<defs>
<linearGradient id="paint0_linear_44_3647" x1="96.9146" y1="98.9191" x2="28.22" y2="2.10596" gradientUnits="userSpaceOnUse">
<stop stop-color="#71BDEF"/>
<stop offset="1" stop-color="#2A76B4"/>
</linearGradient>
<linearGradient id="paint1_linear_44_3647" x1="34.7268" y1="19.3951" x2="93.8124" y2="94.8933" gradientUnits="userSpaceOnUse">
<stop stop-color="#7AC7F7"/>
<stop offset="1" stop-color="#226EAD"/>
</linearGradient>
</defs>
</svg>
